<?xml version="1.0" encoding="iso-8859-1"?>
<!-- Uploaded to: SVG Repo, www.svgrepo.com, Generator: SVG Repo Mixer Tools -->
<svg fill="#000000" version="1.1" id="Layer_1" xmlns="http://www.w3.org/2000/svg" xmlns:xlink="http://www.w3.org/1999/xlink" 
	 viewBox="0 0 512.001 512.001" xml:space="preserve">
<g>
	<g>
		<rect x="117.384" y="79.212" width="63.693" height="15.662"/>
	</g>
</g>
<g>
	<g>
		<rect x="181.078" y="94.872" width="14.618" height="15.662"/>
	</g>
</g>
<g>
	<g>
		<rect x="124.693" y="360.087" width="38.634" height="15.662"/>
	</g>
</g>
<g>
	<g>
		<rect x="163.327" y="343.381" width="17.751" height="15.662"/>
	</g>
</g>
<g>
	<g>
		<rect x="181.078" y="255.672" width="46.987" height="15.662"/>
	</g>
</g>
<g>
	<g>
		<rect x="67.265" y="264.025" width="50.119" height="15.662"/>
	</g>
</g>
<g>
	<g>
		<rect x="163.327" y="166.919" width="17.751" height="15.662"/>
	</g>
</g>
<g>
	<g>
		<rect x="259.389" y="399.765" width="16.706" height="15.662"/>
	</g>
</g>
<g>
	<g>
		<rect x="235.374" y="384.103" width="24.016" height="15.662"/>
	</g>
</g>
<g>
	<g>
		<path d="M491.987,304.033c0-19.494-10.1-44.146-24.286-69.165c0.173-3.625,0.269-7.268,0.269-10.89
			c0-59.827-23.298-116.072-65.601-158.376C360.065,23.298,303.819,0,243.992,0S127.92,23.298,85.616,65.602
			c-42.304,42.304-65.602,98.549-65.602,158.376c0,59.827,23.298,116.072,65.602,158.376s98.549,65.602,158.376,65.602
			c36.705,0,72.998-9.074,105.187-26.22c4.923,0.956,9.953,1.609,15.069,1.941v32.633h-40.201v15.662h40.201v12.182
			c0,15.354,12.491,27.845,27.844,27.845c15.354,0,27.846-12.491,27.846-27.845c0-15.353-12.491-27.844-27.846-27.844h-12.182
			v-32.633C442.391,419.629,491.987,367.518,491.987,304.033z M356.496,48.727c25.161,16.209,46.624,37.682,62.817,62.854h-15.83
			v15.662h24.955c13.029,24.741,21.227,52.402,23.324,81.727c-31.749-48.113-71.155-91.35-73.91-94.356l-5.772-6.294l-5.772,6.294
			c-1.332,1.453-11.241,12.323-24.704,28.591l-11.212-10.65v-29.327h26.104V48.727z M220.756,16.965
			c7.632-0.851,15.381-1.303,23.237-1.303c34.941,0,67.892,8.66,96.841,23.926v47.977H314.73v51.716l16.962,16.111
			c-6.867,8.588-14.241,18.125-21.636,28.235h-42.313v-35.04l-25.06-24.017V82.408l-21.927-8.006V16.965z M91.28,348.824
			l-7.795,7.801c-24.746-29.891-41.312-66.783-46.255-107.216h37.343v-15.662H35.912c-0.15-3.239-0.236-6.494-0.236-9.768
			c0-34.898,8.639-67.812,23.87-96.736h23.381v55.34h26.104v53.591l24.016,16.011v40.501L91.28,332.712V348.824z M93.939,368.322
			l13.004-13.015v-15.911l41.766-40.027v-55.565l-24.016-16.011v-60.872H98.59v-55.34H68.671
			c30.383-47.227,79.317-81.43,136.422-92.261v66.039l21.927,8.006v37.891l25.06,24.017v44.018h46.848
			c-5.881,8.535-11.608,17.304-16.924,26.104H221.8v15.662h51.228c-10.655,19.718-18.425,38.949-20.366,55.34h-31.906v46.987h-25.06
			v59.948l27.828,27.957C172.831,426.321,127.415,403.109,93.939,368.322z M246.583,432.253l-35.225-35.388v-37.82h25.06v-46.987
			h16.029c3.101,46.687,33.039,86.145,74.491,103.053C301.693,426.049,274.291,431.908,246.583,432.253z M392.093,471.973
			c6.718,0,12.183,5.465,12.183,12.182c0,6.718-5.465,12.183-12.183,12.183s-12.182-5.465-12.182-12.183v-12.182H392.093z
			 M364.251,239.988v101.175l-18.653-18.653l-11.075,11.074l29.729,29.729v44.67c-53.84-4.017-96.417-49.105-96.417-103.952
			c0-23.616,18.826-61.838,54.444-110.537c19.988-27.329,40.191-50.915,49.801-61.832c9.61,10.917,29.813,34.502,49.801,61.832
			c11.867,16.225,21.858,31.28,29.922,45.026c-0.021,0.3-0.035,0.601-0.057,0.9l0.614,0.045
			c15.779,27.08,23.965,48.999,23.965,64.566c0,54.846-42.577,99.934-96.414,103.952v-20.653l21.724-21.723l-11.075-11.074
			l-10.647,10.647v-49.899l29.729-29.729l-11.075-11.074l-18.653,18.653v-53.143H364.251z"/>
	</g>
</g>
</svg>