<?xml version="1.0" encoding="iso-8859-1"?>
<!-- Uploaded to: SVG Repo, www.svgrepo.com, Generator: SVG Repo Mixer Tools -->
<svg fill="#000000" version="1.1" id="Layer_1" xmlns="http://www.w3.org/2000/svg" xmlns:xlink="http://www.w3.org/1999/xlink" 
	 viewBox="0 0 512 512" xml:space="preserve">
<g>
	<g>
		<rect x="31.488" y="440.312" width="15.676" height="39.713"/>
	</g>
</g>
<g>
	<g>
		<path d="M375.314,311.87v-8.173c0-39.712-28.965-72.736-66.798-78.96l15.873-10.581l-8.695-13.043L303.864,209v-57.402
			c0-48.868-39.442-88.626-87.923-88.626l-19.493,0.342c-46.818,1.587-84.374,40.613-84.374,87.81v72.354h7.838
			c48.463,0,87.891-39.428,87.891-87.891V78.972l8.287-0.324c39.77,0.081,72.099,32.774,72.099,72.95V209l-11.829-7.886
			l-8.695,13.043l15.681,10.454c-35.732,5.537-63.694,34.926-67.133,71.249H0v215.806h135.754V408.932l144.882,22.877L512,357.443
			V311.87H375.314z M192.125,135.588c0,37.169-28.231,67.87-64.376,71.792v-56.255c0-34.53,24.529-63.43,57.074-70.221
			l-23.356,34.259l12.952,8.83l17.707-25.971V135.588z M120.078,495.99H15.676V311.535h104.402V495.99z M244.476,264.742h35.736
			v-15.676h-18.578c9.85-6.158,21.483-9.721,33.944-9.721c35.323,0,64.06,28.862,64.06,64.353v8.173h-24.452
			c0.459-2.657,0.698-5.387,0.698-8.173v-7.838H231.974C233.332,284.235,237.777,273.585,244.476,264.742z M496.325,346.015h-0.001
			l-33.223,10.679v-12.526h-15.676v17.565l-168.031,54.01l-143.64-22.68v-81.526h183.489c-2.964,11.799-12.458,21.034-24.4,23.622
			v-16.071h-15.676v16.8h-71.199v15.676h80.053c17.715,0,33.213-9.674,41.49-24.016h166.814V346.015z"/>
	</g>
</g>
<g>
	<g>
		<path d="M396.186,0.334h-19.228c-48.927,0-88.77,39.168-88.77,87.222v8.005h15.676v-8.005c0-39.41,32.773-71.473,73.048-71.473
			l7.339,0.008v56.214c0,48.462,39.428,87.89,87.89,87.89h7.839V87.843C479.979,40.898,442.654,2.305,396.186,0.334z
			 M464.302,144.097c-36.144-3.92-64.376-34.621-64.376-71.792V33.81l17.693,26.121l12.979-8.791l-22.586-33.343
			c32.154,7.089,56.291,35.794,56.291,70.046L464.302,144.097z"/>
	</g>
</g>
<g>
	<g>
		<rect x="280.217" y="264.739" width="31.352" height="15.676"/>
	</g>
</g>
<g>
	<g>
		<rect x="246.774" y="272.054" width="17.766" height="15.676"/>
	</g>
</g>
<g>
	<g>
		<rect x="327.245" y="272.054" width="17.766" height="15.676"/>
	</g>
</g>
<g>
	<g>
		<rect x="270.811" y="391.193" width="15.676" height="17.766"/>
	</g>
</g>
</svg>